<svg xmlns="http://www.w3.org/2000/svg" width="39" height="39" viewBox="0 0 39 39">
  <g id="Group_52" data-name="Group 52" transform="translate(-25 -411)">
    <g id="Group_51" data-name="Group 51">
      <path id="Path_84" data-name="Path 84" d="M19.5,0A19.5,19.5,0,1,1,0,19.5,19.5,19.5,0,0,1,19.5,0Z" transform="translate(25 411)" fill="#d989b5"/>
    </g>
    <path id="Path_75" data-name="Path 75" d="M16.552,11.815a1.146,1.146,0,1,1,1.14,1.112A1.113,1.113,0,0,1,16.552,11.815Zm.078,1.985h2.124v8.013H16.629Z" transform="translate(26.869 414.091)" fill="#fff"/>
    <path id="Path_76" data-name="Path 76" d="M14.941,4.932a10,10,0,1,1-7.078,2.93,9.943,9.943,0,0,1,7.078-2.93m0-1.557A11.566,11.566,0,1,0,26.506,14.941,11.564,11.564,0,0,0,14.941,3.375Z" transform="translate(29.625 415.625)" fill="#fff"/>
  </g>
</svg>
