<svg xmlns="http://www.w3.org/2000/svg" width="12.964" height="14.185" viewBox="0 0 12.964 14.185"><g transform="translate(-52.18 -10.001)"><g transform="translate(52.18 10.001)"><path d="M262.215-500.949a.528.528,0,0,0-.153.125c-.053.075-.056.12-.064,1.4a11.525,11.525,0,0,0,.025,1.4.5.5,0,0,0,.128.161.415.415,0,0,0,.612-.117c.047-.084.05-.195.05-1.419,0-1.3,0-1.327-.058-1.405A.406.406,0,0,0,262.215-500.949Z" transform="translate(-258.959 500.999)"/><path d="M681.176-500.914a.686.686,0,0,0-.153.142c-.056.078-.058.111-.067,1.372-.008,1.236-.006,1.3.047,1.416a.376.376,0,0,0,.384.237.294.294,0,0,0,.231-.072c.173-.145.167-.106.167-1.528a6.064,6.064,0,0,0-.045-1.394A.4.4,0,0,0,681.176-500.914Z" transform="translate(-671.852 500.972)"/><path d="M53.218-418.472a1.3,1.3,0,0,0-.921.693l-.1.209-.008,5.518-.005,5.518.058.172a1.27,1.27,0,0,0,.743.779l.159.064,5.44.008c3.815.005,5.485,0,5.585-.022a1.258,1.258,0,0,0,.927-.832c.056-.17.056-.189.05-5.688l-.008-5.515-.089-.189a1.3,1.3,0,0,0-.954-.718c-.1-.014-.537-.022-.974-.02l-.793.008-.008.409-.008.409.877.008c.835.008.879.011.952.067a.761.761,0,0,1,.134.134c.056.075.058.109.058,1.138v1.063l-5.671.008-5.671.006.008-1.068c.008-1.03.011-1.074.067-1.146a.758.758,0,0,1,.134-.134c.072-.056.117-.058.935-.067l.857-.008.011-.259c0-.142,0-.331,0-.417l-.011-.156-.81,0C53.727-418.495,53.3-418.484,53.218-418.472Zm11.117,7.95-.008,3.89-.064.1c-.128.209.359.192-5.6.192a51.12,51.12,0,0,1-5.448-.053.473.473,0,0,1-.153-.145c-.056-.095-.056-.15-.064-3.985l-.006-3.887H64.34Z" transform="translate(-52.18 419.694)"/><path d="M227.3-53.207c-.159.106-.184.178-.184.545s.033.468.2.57c.084.05.142.056.651.056.534,0,.565,0,.651-.064.186-.125.209-.184.209-.543s-.033-.468-.189-.562c-.081-.05-.142-.056-.673-.056S227.376-53.254,227.3-53.207Z" transform="translate(-224.588 59.741)"/><path d="M441.006-53.186c-.161.109-.195.209-.186.576.008.287.017.331.075.415.109.153.186.17.785.17s.671-.017.785-.178c.053-.075.061-.128.07-.406.008-.367-.025-.468-.186-.576-.092-.061-.117-.064-.671-.064S441.1-53.248,441.006-53.186Z" transform="translate(-435.193 59.731)"/><path d="M655.059-53.195c-.156.095-.189.195-.189.562s.022.417.209.543c.086.061.117.064.651.064.509,0,.568-.006.651-.056.167-.1.2-.195.2-.57s-.025-.44-.184-.545c-.072-.047-.139-.053-.665-.053S655.14-53.245,655.059-53.195Z" transform="translate(-646.146 59.731)"/><path d="M226.979,100.733a.573.573,0,0,0-.148.125l-.092.1.011.373c.008.364.008.37.089.454.131.136.184.145.8.136s.654-.017.768-.2a1.477,1.477,0,0,0-.005-.815c-.114-.189-.161-.2-.8-.2A4.691,4.691,0,0,0,226.979,100.733Z" transform="translate(-224.213 -91.999)"/><path d="M440.712,100.6c-.153.1-.192.211-.192.548s.039.448.192.548c.092.061.117.064.671.064s.579,0,.668-.064c.156-.106.195-.214.195-.548s-.039-.448-.192-.548c-.092-.061-.117-.064-.671-.064S440.8,100.543,440.712,100.6Z" transform="translate(-434.899 -91.833)"/><path d="M655.048,100.735c-.145.1-.178.2-.178.559,0,.27.008.317.064.406.106.175.178.192.8.192.587,0,.632-.008.765-.153.067-.072.07-.086.07-.462v-.387l-.106-.1-.1-.106-.607-.008C655.148,100.665,655.148,100.665,655.048,100.735Z" transform="translate(-646.147 -91.961)"/><path d="M228.275,254.373c-.186.114-.195.136-.195.562v.387l.106.1.1.106.593.008c.665.011.718,0,.835-.186.053-.089.061-.136.061-.42s-.008-.331-.064-.42c-.109-.175-.178-.192-.8-.192C228.422,254.32,228.35,254.326,228.275,254.373Z" transform="translate(-225.534 -243.387)"/><path d="M440.712,254.4c-.153.1-.192.211-.192.548s.039.448.192.548c.092.061.117.064.671.064s.579,0,.671-.064c.153-.1.192-.211.192-.548s-.039-.448-.192-.548c-.092-.061-.117-.064-.671-.064S440.8,254.343,440.712,254.4Z" transform="translate(-434.899 -243.407)"/><path d="M332.86-418.113v.417H337.7v-.835H332.86Z" transform="translate(-328.797 419.724)"/></g></g></svg>