<svg xmlns="http://www.w3.org/2000/svg" width="26.642" height="17.984" viewBox="0 0 26.642 17.984"><path d="M.072,20.459V5.661q0-.026.077-.488l8.709,7.45L.175,20.973a2.177,2.177,0,0,1-.1-.514ZM1.228,4.145a1.107,1.107,0,0,1,.437-.077H25.121a1.455,1.455,0,0,1,.462.077l-8.735,7.476-1.156.925-2.287,1.875-2.287-1.875-1.156-.925Zm.026,17.83,8.761-8.4,3.391,2.749L16.8,13.574l8.761,8.4a1.234,1.234,0,0,1-.437.077H1.665a1.164,1.164,0,0,1-.411-.077Zm16.7-9.352,8.684-7.45a1.533,1.533,0,0,1,.077.488v14.8a1.969,1.969,0,0,1-.077.514Z" transform="translate(-0.072 -4.068)" fill="#6eb3e7"/></svg>