<svg xmlns="http://www.w3.org/2000/svg" width="39" height="39" viewBox="0 0 39 39">
  <g id="Group_37" data-name="Group 37" transform="translate(-25 -219)">
    <circle id="Ellipse_12" data-name="Ellipse 12" cx="19.5" cy="19.5" r="19.5" transform="translate(25 219)" fill="#a4be7b"/>
    <g id="Employeee" transform="translate(31.992 228)">
      <path id="Path_63" data-name="Path 63" d="M375.817,397.551v.032c-.476,0-.952,0-1.429,0a4.536,4.536,0,0,0-4.685,4.675c-.012,1.062.013,2.124-.011,3.182a.522.522,0,0,0,.445.611,20.718,20.718,0,0,0,5.889.936,13.905,13.905,0,0,0,5.373-.927.6.6,0,0,0,.445-.643c-.025-1.134.012-2.273-.018-3.4a4.472,4.472,0,0,0-3.712-4.35A19.284,19.284,0,0,0,375.817,397.551Zm-4.473-3.621a37.353,37.353,0,0,0-3.952.025,4.438,4.438,0,0,0-3.943,4.527c0,.768,0,1.537,0,2.306,0,1.456-.011,1.5,1.406,1.833,1.288.3,2.6.49,4,.744-.214-3.137.95-5.307,3.839-6.44A4.708,4.708,0,0,1,371.344,393.93Zm8.844-.1a4.674,4.674,0,0,1-1.343,3.12,5.663,5.663,0,0,1,3.113,2.476,6.665,6.665,0,0,1,.738,3.837,13.049,13.049,0,0,0,4.64-.894.59.59,0,0,0,.408-.661c-.018-1.116,0-2.232-.009-3.348a4.406,4.406,0,0,0-3.524-4.327A33.4,33.4,0,0,0,380.189,393.827Zm-.855-.092a3.557,3.557,0,1,0-3.524,3.591,3.566,3.566,0,0,0,3.524-3.591Zm-13.366-3.706a3.523,3.523,0,0,0,4.987,3.28,1.1,1.1,0,0,0,.52-.609,5.336,5.336,0,0,1,1.3-2.193,1.039,1.039,0,0,0,.273-.7,3.543,3.543,0,0,0-7.078.223Zm19.255.038a3.552,3.552,0,0,0-7.068-.523.693.693,0,0,0,.311.735,4.026,4.026,0,0,1,1.6,2.532.8.8,0,0,0,.695.7,3.551,3.551,0,0,0,4.461-3.448Z" transform="translate(-363.44 -386.5)" fill="#fff"/>
      <path id="Path_64" data-name="Path 64" d="M465.737,556.69a18.025,18.025,0,0,1,2.3.117,4.472,4.472,0,0,1,3.712,4.35c.029,1.134-.007,2.273.018,3.4a.594.594,0,0,1-.445.643,13.848,13.848,0,0,1-5.373.927,20.605,20.605,0,0,1-5.889-.936.523.523,0,0,1-.445-.611c.024-1.061,0-2.123.011-3.182a4.533,4.533,0,0,1,4.685-4.675c.475-.005.951,0,1.428,0Z" transform="translate(-453.36 -545.639)" fill="#fff"/>
      <path id="Path_65" data-name="Path 65" d="M371.356,500.293a4.72,4.72,0,0,0,1.347,2.995c-2.889,1.133-4.053,3.3-3.839,6.44-1.395-.255-2.71-.442-4-.744-1.417-.332-1.406-.377-1.406-1.833v-2.306a4.439,4.439,0,0,1,3.943-4.527A37.367,37.367,0,0,1,371.356,500.293Z" transform="translate(-363.451 -492.863)" fill="#fff"/>
      <path id="Path_66" data-name="Path 66" d="M601.98,499.34a33.5,33.5,0,0,1,4.026.2,4.408,4.408,0,0,1,3.524,4.327c.008,1.116-.009,2.232.009,3.348a.59.59,0,0,1-.408.661,13.048,13.048,0,0,1-4.64.894,6.679,6.679,0,0,0-.738-3.837,5.663,5.663,0,0,0-3.113-2.476A4.7,4.7,0,0,0,601.98,499.34Z" transform="translate(-585.231 -492.013)" fill="#fff"/>
      <path id="Path_67" data-name="Path 67" d="M505.668,446.726a3.557,3.557,0,1,1-3.567-3.556A3.557,3.557,0,0,1,505.668,446.726Z" transform="translate(-489.774 -439.49)" fill="#fff"/>
      <path id="Path_68" data-name="Path 68" d="M402.259,390.03a3.542,3.542,0,0,1,7.076-.223,1.039,1.039,0,0,1-.273.7,5.336,5.336,0,0,0-1.3,2.194,1.094,1.094,0,0,1-.519.609A3.522,3.522,0,0,1,402.259,390.03Z" transform="translate(-399.731 -386.5)" fill="#fff"/>
      <path id="Path_69" data-name="Path 69" d="M596.824,390.106a3.551,3.551,0,0,1-4.464,3.45.8.8,0,0,1-.695-.7,4.007,4.007,0,0,0-1.6-2.532.693.693,0,0,1-.311-.735,3.554,3.554,0,0,1,7.071.521Z" transform="translate(-575.041 -386.538)" fill="#fff"/>
    </g>
  </g>
</svg>
