<svg xmlns="http://www.w3.org/2000/svg" width="39" height="39" viewBox="0 0 39 39">
  <g id="Group_52" data-name="Group 52" transform="translate(-25 -481)">
    <circle id="Ellipse_14" data-name="Ellipse 14" cx="19.5" cy="19.5" r="19.5" transform="translate(25 481)" fill="#218bdb"/>
    <path id="Path_81" data-name="Path 81" d="M393.032,335.868h-4.657a1.745,1.745,0,0,1-1.885-1.889V321.672a1.734,1.734,0,0,1,1.871-1.872h5.594a1.718,1.718,0,0,1,1.858,1.6c.091.61.158,1.226.24,1.867h8.086a1.713,1.713,0,0,1,1.7.981,1.952,1.952,0,0,1,.179.808q.017,6.243.006,12.486a1.713,1.713,0,0,1-1.794,1.794q-4.589.007-9.179,0a1.733,1.733,0,0,1-1.794-1.648C393.188,337.09,393.11,336.495,393.032,335.868Zm2.207,2.306c.1.008.146.014.188.014h8.8c.458,0,.655-.22.655-.712V325.143c0-.53-.192-.721-.719-.721h-7.944a1.738,1.738,0,0,0,0,.191q.361,2.9.725,5.8c.192,1.538.382,3.077.582,4.615a.879.879,0,0,1-.225.769c-.368.4-.712.817-1.068,1.228C395.911,337.394,395.592,337.763,395.239,338.175Zm1.072-3.463c-.005-.1,0-.162-.012-.22q-.231-1.867-.464-3.733-.574-4.59-1.149-9.181a.613.613,0,0,0-.7-.631q-2.823,0-5.645,0c-.509,0-.7.2-.7.712v12.336c0,.527.194.717.723.717h7.95Zm-1.933,2.7,1.322-1.526h-1.51c.063.5.122.984.19,1.527Z" transform="translate(-351.758 171.849)" fill="#fefefe"/>
    <path id="Path_82" data-name="Path 82" d="M614.407,471.7c-.33-.565-.652-1.109-.966-1.658a2.1,2.1,0,0,1-.167-.4c-.087-.271-.156-.514-.528-.552-.254-.026-.385-.336-.346-.6a.553.553,0,0,1,.547-.474c.465-.014.932-.006,1.4-.008h.339c0-.2,0-.371,0-.546a.566.566,0,1,1,1.131-.01c.005.175,0,.351,0,.556h1.37c.127,0,.254,0,.381.006a.558.558,0,0,1,.536.541.583.583,0,0,1-.509.6c-.088.017-.216.078-.239.147a7.416,7.416,0,0,1-1.252,2.282.86.86,0,0,0-.051.093l.972.8c.091.075.188.145.278.223a.572.572,0,0,1,.111.814.558.558,0,0,1-.814.084c-.381-.3-.75-.61-1.124-.915l-.222-.181c-.439.356-.862.722-1.311,1.051a.893.893,0,0,1-.534.153.484.484,0,0,1-.429-.412.551.551,0,0,1,.208-.588c.346-.286.7-.567,1.043-.851C614.3,471.8,614.369,471.736,614.407,471.7Zm-.146-2.538.954,1.695a5.69,5.69,0,0,0,.958-1.695Z" transform="translate(-566.172 32.259)" fill="#fefefe"/>
    <path id="Path_83" data-name="Path 83" d="M445.981,399.277c.144,0,.288,0,.432,0a.626.626,0,0,1,.712.6l.509,2.543.589,2.966a.575.575,0,1,1-1.118.238c-.1-.481-.2-.961-.284-1.446-.039-.24-.12-.347-.384-.326a9.033,9.033,0,0,1-1.017,0c-.181-.006-.267.038-.3.237-.09.534-.2,1.065-.319,1.594a.567.567,0,0,1-1.115-.012.9.9,0,0,1,.019-.3q.546-2.755,1.1-5.509a.62.62,0,0,1,.7-.587C445.659,399.274,445.82,399.277,445.981,399.277Zm.536,3.42c-.143-.718-.281-1.424-.427-2.124-.012-.056-.083-.1-.127-.15-.045.051-.117.092-.129.147-.146.7-.284,1.406-.428,2.126Z" transform="translate(-406.041 96.415)" fill="#fefefe"/>
  </g>
</svg>
