<svg xmlns="http://www.w3.org/2000/svg" width="39" height="39" viewBox="0 0 39 39">
  <g id="Group_49" data-name="Group 49" transform="translate(-25 -346)">
    <circle id="Ellipse_14" data-name="Ellipse 14" cx="19.5" cy="19.5" r="19.5" transform="translate(25 346)" fill="#cd104d"/>
    <g id="Icon_ionic-ios-log-out" data-name="Icon ionic-ios-log-out" transform="translate(31.625 350.375)">
      <path id="Path_77" data-name="Path 77" d="M18.533,22.391a.806.806,0,0,0-.8.8A1.037,1.037,0,0,1,16.7,24.228H6.016a1.037,1.037,0,0,1-1.033-1.033V8.266A1.037,1.037,0,0,1,6.016,7.233H16.7a1.037,1.037,0,0,1,1.033,1.033.8.8,0,1,0,1.608,0A2.642,2.642,0,0,0,16.7,5.625H6.016A2.642,2.642,0,0,0,3.375,8.266V23.194a2.642,2.642,0,0,0,2.641,2.641H16.7a2.642,2.642,0,0,0,2.641-2.641A.806.806,0,0,0,18.533,22.391Z" fill="#fff"/>
      <path id="Path_78" data-name="Path 78" d="M23.319,11.064a.8.8,0,0,0-.568-.235.785.785,0,0,0-.568.235.8.8,0,0,0,0,1.137l3.744,3.686H11.21a.8.8,0,1,0,0,1.608H25.943l-3.652,3.68a.811.811,0,0,0,0,1.137l.006.006a.83.83,0,0,0,.563.224.776.776,0,0,0,.568-.235l4.743-4.731a1.128,1.128,0,0,0,0-1.677Z" transform="translate(-1.29 -0.954)" fill="#fff"/>
    </g>
  </g>
</svg>
