<svg xmlns="http://www.w3.org/2000/svg" width="23.768" height="23.768" viewBox="0 0 23.768 23.768"><path d="M14.35,2.25A11.623,11.623,0,0,0,2.682,13.828a11.458,11.458,0,0,0,1.674,5.978L2.25,26.018l6.46-2.052A11.688,11.688,0,0,0,26.018,13.828,11.623,11.623,0,0,0,14.35,2.25Zm5.8,15.975a3.014,3.014,0,0,1-2.064,1.33c-.547.029-.563.424-3.546-.872a12.174,12.174,0,0,1-4.919-4.651,5.722,5.722,0,0,1-1.1-3.1A3.306,3.306,0,0,1,9.657,8.5a1.143,1.143,0,0,1,.808-.34c.235,0,.387-.007.561,0s.435-.036.661.564.766,2.077.835,2.228a.541.541,0,0,1,.005.518,2.026,2.026,0,0,1-.316.482c-.156.167-.328.374-.466.5-.155.141-.317.3-.154.6a8.929,8.929,0,0,0,1.58,2.108,8.141,8.141,0,0,0,2.34,1.555c.293.159.467.142.649-.049s.777-.835.987-1.123.406-.232.676-.124,1.706.878,2,1.037.488.24.558.366A2.45,2.45,0,0,1,20.152,18.225Z" transform="translate(-2.25 -2.25)" fill="#3aaf3c"/></svg>